<svg id="visual" viewBox="0 0 1920 1080" width="1920" height="1080" xmlns="http://www.w3.org/2000/svg" xmlns:xlink="http://www.w3.org/1999/xlink" version="1.1"><g stroke-width="1" stroke-linejoin="bevel"><path d="M837.3 550L675 571L841.3 682Z" fill="#bdc0c1" stroke="#bdc0c1"></path><path d="M675 571L604 744L841.3 682Z" fill="#c2cbcd" stroke="#c2cbcd"></path><path d="M823.3 909L1035.7 715L841.3 682Z" fill="#c2cbcd" stroke="#c2cbcd"></path><path d="M841.3 682L1035.7 715L837.3 550Z" fill="#c6d1d6" stroke="#c6d1d6"></path><path d="M1027.7 378L832.3 335L837.3 550Z" fill="#bfc5c7" stroke="#bfc5c7"></path><path d="M837.3 550L832.3 335L675 571Z" fill="#c4ced2" stroke="#c4ced2"></path><path d="M604 744L631 880L841.3 682Z" fill="#bfc5c7" stroke="#bfc5c7"></path><path d="M631 880L823.3 909L841.3 682Z" fill="#c4ced2" stroke="#c4ced2"></path><path d="M832.3 335L630 349L675 571Z" fill="#bdc0c1" stroke="#bdc0c1"></path><path d="M436.7 572L460.7 747L604 744Z" fill="#c0c7c9" stroke="#c0c7c9"></path><path d="M436.7 572L604 744L675 571Z" fill="#bdc0c1" stroke="#bdc0c1"></path><path d="M604 744L460.7 747L631 880Z" fill="#c5cfd4" stroke="#c5cfd4"></path><path d="M630 349L436.7 572L675 571Z" fill="#c5cfd4" stroke="#c5cfd4"></path><path d="M1035.7 715L1099.7 579L837.3 550Z" fill="#bfc4c5" stroke="#bfc4c5"></path><path d="M1099.7 579L1027.7 378L837.3 550Z" fill="#bfc4c5" stroke="#bfc4c5"></path><path d="M823.3 909L1029.7 916L1035.7 715Z" fill="#bdc0c1" stroke="#bdc0c1"></path><path d="M1293 723L1258 522L1099.7 579Z" fill="#c1c9cb" stroke="#c1c9cb"></path><path d="M1071.7 201L822.3 204L832.3 335Z" fill="#c6d1d6" stroke="#c6d1d6"></path><path d="M832.3 335L822.3 204L630 349Z" fill="#bec2c3" stroke="#bec2c3"></path><path d="M460.7 747L445.7 906L631 880Z" fill="#c0c7c9" stroke="#c0c7c9"></path><path d="M605 1080L842.3 1080L823.3 909Z" fill="#c5cfd4" stroke="#c5cfd4"></path><path d="M823.3 909L842.3 1080L1029.7 916Z" fill="#bfc5c7" stroke="#bfc5c7"></path><path d="M242.3 734L445.7 906L460.7 747Z" fill="#c1c9cb" stroke="#c1c9cb"></path><path d="M630 349L395.7 346L436.7 572Z" fill="#bdc0c1" stroke="#bdc0c1"></path><path d="M436.7 572L242.3 734L460.7 747Z" fill="#bdc0c1" stroke="#bdc0c1"></path><path d="M406.7 218L395.7 346L630 349Z" fill="#c3cccf" stroke="#c3cccf"></path><path d="M605 1080L823.3 909L631 880Z" fill="#c1c9cb" stroke="#c1c9cb"></path><path d="M445.7 906L605 1080L631 880Z" fill="#c4ced2" stroke="#c4ced2"></path><path d="M822.3 204L613 142L630 349Z" fill="#bfc4c5" stroke="#bfc4c5"></path><path d="M1293 723L1099.7 579L1035.7 715Z" fill="#c2cbcd" stroke="#c2cbcd"></path><path d="M1099.7 579L1258 522L1027.7 378Z" fill="#bfc5c7" stroke="#bfc5c7"></path><path d="M1027.7 378L1071.7 201L832.3 335Z" fill="#c0c7c9" stroke="#c0c7c9"></path><path d="M1285 393L1071.7 201L1027.7 378Z" fill="#c1c9cb" stroke="#c1c9cb"></path><path d="M822.3 204L652 0L613 142Z" fill="#bfc4c5" stroke="#bfc4c5"></path><path d="M181.3 532L242.3 734L436.7 572Z" fill="#c2cbcd" stroke="#c2cbcd"></path><path d="M445.7 906L455.7 1080L605 1080Z" fill="#bdc0c1" stroke="#bdc0c1"></path><path d="M613 142L406.7 218L630 349Z" fill="#bfc5c7" stroke="#bfc5c7"></path><path d="M395.7 346L181.3 532L436.7 572Z" fill="#bfc4c5" stroke="#bfc4c5"></path><path d="M1272 937L1293 723L1035.7 715Z" fill="#c2cbcd" stroke="#c2cbcd"></path><path d="M1272 937L1035.7 715L1029.7 916Z" fill="#c0c7c9" stroke="#c0c7c9"></path><path d="M842.3 1080L1068.7 1080L1029.7 916Z" fill="#bdc0c1" stroke="#bdc0c1"></path><path d="M184.3 1080L455.7 1080L445.7 906Z" fill="#bec2c3" stroke="#bec2c3"></path><path d="M1258 522L1285 393L1027.7 378Z" fill="#c2cbcd" stroke="#c2cbcd"></path><path d="M1489.3 516L1285 393L1258 522Z" fill="#bec2c3" stroke="#bec2c3"></path><path d="M250.3 328L181.3 532L395.7 346Z" fill="#bfc5c7" stroke="#bfc5c7"></path><path d="M406.7 218L250.3 328L395.7 346Z" fill="#c3cccf" stroke="#c3cccf"></path><path d="M1068.7 1080L1272 937L1029.7 916Z" fill="#c6d1d6" stroke="#c6d1d6"></path><path d="M1052.7 0L856.3 0L1071.7 201Z" fill="#c3cccf" stroke="#c3cccf"></path><path d="M1071.7 201L856.3 0L822.3 204Z" fill="#c6d1d6" stroke="#c6d1d6"></path><path d="M613 142L454.7 0L406.7 218Z" fill="#c4ced2" stroke="#c4ced2"></path><path d="M856.3 0L652 0L822.3 204Z" fill="#c1c9cb" stroke="#c1c9cb"></path><path d="M406.7 218L183.3 177L250.3 328Z" fill="#c2cbcd" stroke="#c2cbcd"></path><path d="M0 871L190.3 906L242.3 734Z" fill="#c0c7c9" stroke="#c0c7c9"></path><path d="M242.3 734L190.3 906L445.7 906Z" fill="#c0c7c9" stroke="#c0c7c9"></path><path d="M1285 393L1272 203L1071.7 201Z" fill="#c4ced2" stroke="#c4ced2"></path><path d="M1272 203L1052.7 0L1071.7 201Z" fill="#bfc4c5" stroke="#bfc4c5"></path><path d="M652 0L454.7 0L613 142Z" fill="#c1c9cb" stroke="#c1c9cb"></path><path d="M1068.7 1080L1279 1080L1272 937Z" fill="#c6d1d6" stroke="#c6d1d6"></path><path d="M1490.3 724L1489.3 516L1293 723Z" fill="#c0c7c9" stroke="#c0c7c9"></path><path d="M0 363L0 519L181.3 532Z" fill="#c5cfd4" stroke="#c5cfd4"></path><path d="M234.3 0L183.3 177L406.7 218Z" fill="#bfc4c5" stroke="#bfc4c5"></path><path d="M1490.3 724L1293 723L1495.3 872Z" fill="#c0c7c9" stroke="#c0c7c9"></path><path d="M1293 723L1489.3 516L1258 522Z" fill="#bec2c3" stroke="#bec2c3"></path><path d="M1285 393L1459.3 382L1272 203Z" fill="#bfc4c5" stroke="#bfc4c5"></path><path d="M1495.3 872L1293 723L1272 937Z" fill="#c5cfd4" stroke="#c5cfd4"></path><path d="M1489.3 516L1459.3 382L1285 393Z" fill="#c0c7c9" stroke="#c0c7c9"></path><path d="M0 1080L184.3 1080L190.3 906Z" fill="#bfc4c5" stroke="#bfc4c5"></path><path d="M190.3 906L184.3 1080L445.7 906Z" fill="#c5cfd4" stroke="#c5cfd4"></path><path d="M181.3 532L0 686L242.3 734Z" fill="#bdc0c1" stroke="#bdc0c1"></path><path d="M0 519L0 686L181.3 532Z" fill="#c0c7c9" stroke="#c0c7c9"></path><path d="M0 363L181.3 532L250.3 328Z" fill="#c2cbcd" stroke="#c2cbcd"></path><path d="M1490.3 1080L1495.3 872L1272 937Z" fill="#bec2c3" stroke="#bec2c3"></path><path d="M1728.7 370L1459.3 382L1489.3 516Z" fill="#c5cfd4" stroke="#c5cfd4"></path><path d="M0 686L0 871L242.3 734Z" fill="#c6d1d6" stroke="#c6d1d6"></path><path d="M183.3 177L0 363L250.3 328Z" fill="#c6d1d6" stroke="#c6d1d6"></path><path d="M454.7 0L234.3 0L406.7 218Z" fill="#bfc4c5" stroke="#bfc4c5"></path><path d="M183.3 177L0 146L0 363Z" fill="#bec2c3" stroke="#bec2c3"></path><path d="M1531.3 153L1302 0L1272 203Z" fill="#c1c9cb" stroke="#c1c9cb"></path><path d="M1272 203L1302 0L1052.7 0Z" fill="#c2cbcd" stroke="#c2cbcd"></path><path d="M1279 1080L1490.3 1080L1272 937Z" fill="#c5cfd4" stroke="#c5cfd4"></path><path d="M0 871L0 1080L190.3 906Z" fill="#bdc0c1" stroke="#bdc0c1"></path><path d="M1667.7 178L1531.3 153L1459.3 382Z" fill="#bdc0c1" stroke="#bdc0c1"></path><path d="M1459.3 382L1531.3 153L1272 203Z" fill="#c2cbcd" stroke="#c2cbcd"></path><path d="M1705.7 570L1489.3 516L1490.3 724Z" fill="#bfc4c5" stroke="#bfc4c5"></path><path d="M1699.7 719L1490.3 724L1495.3 872Z" fill="#c0c7c9" stroke="#c0c7c9"></path><path d="M0 0L0 146L183.3 177Z" fill="#c2cbcd" stroke="#c2cbcd"></path><path d="M1732.7 923L1699.7 719L1495.3 872Z" fill="#c3cccf" stroke="#c3cccf"></path><path d="M1699.7 719L1705.7 570L1490.3 724Z" fill="#c3cccf" stroke="#c3cccf"></path><path d="M1687.7 0L1525.3 0L1531.3 153Z" fill="#bfc4c5" stroke="#bfc4c5"></path><path d="M1531.3 153L1525.3 0L1302 0Z" fill="#c3cccf" stroke="#c3cccf"></path><path d="M234.3 0L0 0L183.3 177Z" fill="#bfc4c5" stroke="#bfc4c5"></path><path d="M1920 579L1728.7 370L1705.7 570Z" fill="#c3cccf" stroke="#c3cccf"></path><path d="M1705.7 570L1728.7 370L1489.3 516Z" fill="#c5cfd4" stroke="#c5cfd4"></path><path d="M1728.7 370L1667.7 178L1459.3 382Z" fill="#c1c9cb" stroke="#c1c9cb"></path><path d="M1490.3 1080L1732.7 923L1495.3 872Z" fill="#c0c7c9" stroke="#c0c7c9"></path><path d="M1920 689L1920 579L1705.7 570Z" fill="#c2cbcd" stroke="#c2cbcd"></path><path d="M1490.3 1080L1706.7 1080L1732.7 923Z" fill="#c0c7c9" stroke="#c0c7c9"></path><path d="M1920 167L1687.7 0L1667.7 178Z" fill="#c0c7c9" stroke="#c0c7c9"></path><path d="M1667.7 178L1687.7 0L1531.3 153Z" fill="#c5cfd4" stroke="#c5cfd4"></path><path d="M1920 689L1705.7 570L1699.7 719Z" fill="#bfc4c5" stroke="#bfc4c5"></path><path d="M1728.7 370L1920 167L1667.7 178Z" fill="#bfc5c7" stroke="#bfc5c7"></path><path d="M1920 689L1699.7 719L1732.7 923Z" fill="#c2cbcd" stroke="#c2cbcd"></path><path d="M1920 927L1920 689L1732.7 923Z" fill="#c0c7c9" stroke="#c0c7c9"></path><path d="M1920 579L1920 326L1728.7 370Z" fill="#c2cbcd" stroke="#c2cbcd"></path><path d="M1920 1080L1920 927L1732.7 923Z" fill="#bfc5c7" stroke="#bfc5c7"></path><path d="M1920 326L1920 167L1728.7 370Z" fill="#c2cbcd" stroke="#c2cbcd"></path><path d="M1706.7 1080L1920 1080L1732.7 923Z" fill="#c2cbcd" stroke="#c2cbcd"></path><path d="M1920 167L1920 0L1687.7 0Z" fill="#bec2c3" stroke="#bec2c3"></path></g></svg>